<?xml version="1.0" encoding="UTF-8" standalone="no"?>
<!-- Created with Inkscape (http://www.inkscape.org/) -->

<svg
   width="210mm"
   height="297mm"
   viewBox="0 0 210 297"
   version="1.1"
   id="svg1"
   inkscape:version="1.3.2 (091e20e, 2023-11-25, custom)"
   sodipodi:docname="maze.svg"
   xmlns:inkscape="http://www.inkscape.org/namespaces/inkscape"
   xmlns:sodipodi="http://sodipodi.sourceforge.net/DTD/sodipodi-0.dtd"
   xmlns="http://www.w3.org/2000/svg"
   xmlns:svg="http://www.w3.org/2000/svg">
  <sodipodi:namedview
     id="namedview1"
     pagecolor="#ffffff"
     bordercolor="#000000"
     borderopacity="0.25"
     inkscape:showpageshadow="2"
     inkscape:pageopacity="0.0"
     inkscape:pagecheckerboard="0"
     inkscape:deskcolor="#d1d1d1"
     inkscape:document-units="mm"
     inkscape:zoom="0.74564394"
     inkscape:cx="396.30175"
     inkscape:cy="561.25984"
     inkscape:window-width="1920"
     inkscape:window-height="1051"
     inkscape:window-x="-9"
     inkscape:window-y="-9"
     inkscape:window-maximized="1"
     inkscape:current-layer="layer1" />
  <defs
     id="defs1" />
  <g
     inkscape:label="Layer 1"
     inkscape:groupmode="layer"
     id="layer1">
    <path
       style="fill:none;stroke:#000000;stroke-width:1.5"
       d="m 43.645161,90.838708 h 36.193547 l 0.75,78.419352"
       id="path1"
       sodipodi:nodetypes="ccc" />
    <path
       style="fill:none;stroke:#000000;stroke-width:1.5"
       d="M 79.838708,90.838707 V 58.193548"
       id="path2" />
    <path
       style="fill:none;stroke:#000000;stroke-width:1.5"
       d="M 41.870968,147.6129 V 242 H 163.58064 v -91.54839 h 37.96774 L 200.83871,90.088706 H 123.12903 V 48.258063"
       id="path3" />
    <path
       style="fill:none;stroke:#ff0000;stroke-width:1.5"
       d="m 105,51.806451 c -0.58065,0.591399 -1.21711,1.132742 -1.74194,1.774195 -0.35285,0.431265 0,8.360706 0,9.935482 0,2.783523 -0.4457,6.196783 0,8.870969 0.0615,0.368943 0.23656,0.709676 0.35484,1.064516 0.11828,0.473118 0.28587,0.936575 0.35484,1.419355 0.44622,3.123573 -0.61022,6.884373 0,9.935482 1.00389,5.019442 1.50547,10.762414 1.03226,15.96774 1.77275,1.54465 4.43017,0.92169 6.41935,1.7742 0.3075,0.13178 0.41046,0.56006 0.70968,0.70967 0.21159,0.1058 0.47634,-0.0389 0.70968,0 2.71005,0.45168 5.44579,1.07992 8.16129,1.41936 3.51421,0.43928 7.78835,0 11.35484,0 5.18957,0 10.47194,0.28778 15.6129,-0.35484 3.15234,-0.39404 6.73974,0 9.93549,0 6.86021,0 13.72043,0 20.58064,0 0.4585,1.76925 0.35484,3.52129 0.35484,5.32258 0,2.42082 0.50745,4.6701 0.70968,7.09678 0.25196,3.0235 0,6.18939 0,9.2258 0,1.65592 0,3.31183 0,4.96774 0,0.28908 0,2.26183 0,1.41936 -2.06308,-0.79456 -4.28926,-0.0688 -6.3871,-0.35484 -1.9078,-0.26015 -3.76962,-0.80436 -5.67742,-1.06452 -1.99576,-0.27214 -4.03495,-0.0943 -6.03226,-0.35483 -1.42684,-0.18612 -2.82627,-0.5665 -4.25806,-0.70968 -4.26801,-0.4268 -8.84435,0 -13.12903,0 -2.91178,0 -5.97606,-0.28949 -8.87097,0 -1.065,-0.27782 -1.86932,0.60196 -2.83871,0.70968 -1.85922,0.20658 -3.80686,0.16778 -5.67742,0.35483 -3.30688,0.33069 -6.70611,0.77348 -9.93548,1.41936 -1.98373,0.39674 -4.33277,0 -6.3871,0 1.68802,5.90642 2.28607,12.0178 2.83871,18.09677 0.21329,2.3462 -0.21329,4.75058 0,7.09678 0.14899,1.63895 0.59943,3.31401 0.70968,4.96774 0.20561,3.08419 0.17185,6.48725 0,9.58064 -0.25631,4.61348 -0.70968,9.20763 -0.70968,13.83871 0,3.54839 0,7.09678 0,10.64517 0,1.01281 -0.31828,2.59355 0,3.54838 0.85675,2.57025 -0.1023,-0.55944 0.70968,1.06452 0.17176,0.34353 -0.018,0.67365 0.35483,1.41935 0.46307,0.92613 -0.0647,3.83598 0,4.61291 0.0501,0.60102 0.28004,1.17574 0.35484,1.77419 0.21458,1.71663 0,3.5852 0,5.32258 -2.93925,-0.2127 -5.93438,0.24472 -8.87096,0 -2.60037,-0.2167 -5.20808,-0.84798 -7.806456,-1.06452 -4.230721,-0.35256 -2.111959,0.0531 -7.451613,-0.70967 -3.203782,-0.45769 -7.347405,0 -10.645161,0 -3.311828,0 -6.623656,0 -9.935484,0 -1.079691,0 -2.86998,0.34441 -3.903226,0 -1.190331,-0.39678 -2.217779,-0.35484 -3.508083,-0.35484 0.714786,-7.2574 0.399506,-2.36876 -0.395143,-15.6129 -0.462505,-7.70842 -0.723538,-15.67668 -0.354839,-23.41936 0.526066,-11.04737 0.01928,-2.30254 0.709678,-8.51613 0.28313,-2.54817 0,-5.24247 0,-7.80645 0,-3.07527 0,-6.15054 0,-9.22581 0,-1.59908 0.319657,-3.72429 0,-5.32258 -0.416222,-2.08111 -0.04253,-3.80357 -0.354839,-5.67742 -0.172506,-1.03503 -0.709677,-1.79238 -0.709677,-2.83871 0,-0.0902 -0.09472,-2.09861 0,-2.12903 0.350633,-0.11261 0.736547,0 1.10482,0 -4.445019,0.32136 -8.77677,-0.27042 -13.169336,-0.70968 -0.235385,-0.0235 -0.473119,0 -0.709678,0 -0.709677,0 -1.424835,0.088 -2.129032,0 -0.262439,-0.0328 -0.448795,-0.31135 -0.709677,-0.35483 -1.727687,-0.28795 -3.582332,0.21753 -5.322581,0 -0.915636,0.36694 -1.395494,-0.56297 -2.129032,-0.70968 -0.535115,-0.10703 -4.106104,-0.26288 -4.258065,-0.194"
       id="path4" />
  </g>
</svg>
